<svg width="17" height="16" viewBox="0 0 17 16" fill="none" xmlns="http://www.w3.org/2000/svg">
<path d="M14.2507 0.891174C14.1556 0.89112 14.0615 0.909803 13.9737 0.946154C13.8858 0.982505 13.806 1.03581 13.7388 1.10303C13.6716 1.17024 13.6183 1.25004 13.582 1.33788C13.5456 1.42571 13.5269 1.51984 13.527 1.6149V2.0757C12.9166 2.8325 12.1451 3.44368 11.2688 3.86474C10.3924 4.28581 9.43319 4.50616 8.46093 4.50978H4.1186C3.54297 4.51041 2.99109 4.73936 2.58405 5.14639C2.17702 5.55343 1.94807 6.10531 1.94744 6.68094V8.12838C1.94807 8.70402 2.17702 9.2559 2.58405 9.66293C2.99109 10.07 3.54297 10.2989 4.1186 10.2995H4.46873L2.72983 14.357C2.68257 14.4671 2.66339 14.5871 2.67399 14.7064C2.6846 14.8257 2.72467 14.9405 2.7906 15.0405C2.85653 15.1405 2.94626 15.2225 3.05173 15.2793C3.1572 15.336 3.27512 15.3657 3.39488 15.3656H6.28977C6.43144 15.3657 6.57001 15.3241 6.68825 15.2461C6.8065 15.1681 6.8992 15.057 6.95483 14.9267L8.92607 10.327C9.81671 10.3924 10.6845 10.6397 11.4758 11.0536C12.2672 11.4675 12.9652 12.0392 13.527 12.7335V13.1944C13.527 13.3864 13.6032 13.5705 13.7389 13.7062C13.8747 13.8419 14.0588 13.9182 14.2507 13.9182C14.4426 13.9182 14.6267 13.8419 14.7624 13.7062C14.8982 13.5705 14.9744 13.3864 14.9744 13.1944V1.6149C14.9745 1.51984 14.9558 1.4257 14.9194 1.33787C14.8831 1.25004 14.8298 1.17024 14.7626 1.10302C14.6954 1.03581 14.6156 0.982503 14.5277 0.946152C14.4399 0.909801 14.3458 0.891119 14.2507 0.891174ZM4.1186 8.8521C3.9267 8.85198 3.74269 8.77569 3.607 8.63999C3.4713 8.50429 3.39501 8.32029 3.39488 8.12838V6.68094C3.39501 6.48904 3.47131 6.30503 3.607 6.16934C3.7427 6.03364 3.9267 5.95735 4.1186 5.95722H4.84233V8.8521H4.1186ZM5.81271 13.9182H4.49248L6.04311 10.2995H7.36334L5.81271 13.9182ZM13.527 10.6772C12.1 9.50159 10.3098 8.85665 8.46093 8.85207H6.28977V5.95718H8.46093C10.3098 5.95246 12.1 5.3074 13.527 4.13171V10.6772Z" fill="#F2F2F2"/>
</svg>
