<svg width="16" height="17" viewBox="0 0 16 17" fill="none" xmlns="http://www.w3.org/2000/svg">
<path d="M11.3334 10.1431C11.7016 10.1431 12 9.84463 12 9.47644C12 9.10825 11.7016 8.80977 11.3334 8.80977C10.9652 8.80977 10.6667 9.10825 10.6667 9.47644C10.6667 9.84463 10.9652 10.1431 11.3334 10.1431Z" fill="#1C274C"/>
<path d="M11.3334 12.8098C11.7016 12.8098 12 12.5113 12 12.1431C12 11.7749 11.7016 11.4764 11.3334 11.4764C10.9652 11.4764 10.6667 11.7749 10.6667 12.1431C10.6667 12.5113 10.9652 12.8098 11.3334 12.8098Z" fill="#1C274C"/>
<path d="M8.66671 9.47644C8.66671 9.84463 8.36823 10.1431 8.00004 10.1431C7.63185 10.1431 7.33337 9.84463 7.33337 9.47644C7.33337 9.10825 7.63185 8.80977 8.00004 8.80977C8.36823 8.80977 8.66671 9.10825 8.66671 9.47644Z" fill="#1C274C"/>
<path d="M8.66671 12.1431C8.66671 12.5113 8.36823 12.8098 8.00004 12.8098C7.63185 12.8098 7.33337 12.5113 7.33337 12.1431C7.33337 11.7749 7.63185 11.4764 8.00004 11.4764C8.36823 11.4764 8.66671 11.7749 8.66671 12.1431Z" fill="#1C274C"/>
<path d="M4.66671 10.1431C5.0349 10.1431 5.33337 9.84463 5.33337 9.47644C5.33337 9.10825 5.0349 8.80977 4.66671 8.80977C4.29852 8.80977 4.00004 9.10825 4.00004 9.47644C4.00004 9.84463 4.29852 10.1431 4.66671 10.1431Z" fill="#1C274C"/>
<path d="M4.66671 12.8098C5.0349 12.8098 5.33337 12.5113 5.33337 12.1431C5.33337 11.7749 5.0349 11.4764 4.66671 11.4764C4.29852 11.4764 4.00004 11.7749 4.00004 12.1431C4.00004 12.5113 4.29852 12.8098 4.66671 12.8098Z" fill="#1C274C"/>
<path fill-rule="evenodd" clip-rule="evenodd" d="M4.66671 1.97644C4.94285 1.97644 5.16671 2.2003 5.16671 2.47644V2.98492C5.60804 2.97643 6.09426 2.97644 6.62901 2.97644H9.37099C9.90575 2.97644 10.392 2.97643 10.8334 2.98492V2.47644C10.8334 2.2003 11.0572 1.97644 11.3334 1.97644C11.6095 1.97644 11.8334 2.2003 11.8334 2.47644V3.02783C12.0067 3.04104 12.1708 3.05765 12.3261 3.07853C13.1077 3.18362 13.7403 3.40503 14.2392 3.90394C14.7381 4.40284 14.9595 5.03548 15.0646 5.81709C15.1667 6.57656 15.1667 7.54698 15.1667 8.77214V10.1807C15.1667 11.4059 15.1667 12.3763 15.0646 13.1358C14.9595 13.9174 14.7381 14.55 14.2392 15.0489C13.7403 15.5479 13.1077 15.7693 12.3261 15.8744C11.5666 15.9765 10.5962 15.9765 9.37101 15.9764H6.6291C5.40394 15.9765 4.4335 15.9765 3.67403 15.8744C2.89241 15.7693 2.25978 15.5479 1.76087 15.0489C1.26196 14.55 1.04055 13.9174 0.935464 13.1358C0.833355 12.3763 0.833364 11.4059 0.833374 10.1807V8.77216C0.833364 7.54699 0.833355 6.57657 0.935464 5.81709C1.04055 5.03548 1.26196 4.40284 1.76087 3.90394C2.25978 3.40503 2.89241 3.18362 3.67403 3.07853C3.82931 3.05765 3.99341 3.04104 4.16671 3.02783V2.47644C4.16671 2.2003 4.39057 1.97644 4.66671 1.97644ZM3.80727 4.06961C3.13655 4.15979 2.75012 4.3289 2.46798 4.61104C2.18584 4.89318 2.01672 5.27961 1.92655 5.95034C1.91128 6.06393 1.89851 6.18351 1.88783 6.30977H14.1123C14.1016 6.18351 14.0888 6.06393 14.0735 5.95034C13.9834 5.27961 13.8142 4.89318 13.5321 4.61104C13.25 4.3289 12.8635 4.15979 12.1928 4.06961C11.5077 3.9775 10.6046 3.97644 9.33337 3.97644H6.66671C5.39549 3.97644 4.49238 3.9775 3.80727 4.06961ZM1.83337 8.80977C1.83337 8.24043 1.83359 7.74493 1.8421 7.30977H14.158C14.1665 7.74493 14.1667 8.24043 14.1667 8.80977V10.1431C14.1667 11.4143 14.1656 12.3174 14.0735 13.0025C13.9834 13.6733 13.8142 14.0597 13.5321 14.3418C13.25 14.624 12.8635 14.7931 12.1928 14.8833C11.5077 14.9754 10.6046 14.9764 9.33337 14.9764H6.66671C5.39549 14.9764 4.49238 14.9754 3.80727 14.8833C3.13655 14.7931 2.75012 14.624 2.46798 14.3418C2.18584 14.0597 2.01672 13.6733 1.92655 13.0025C1.83444 12.3174 1.83337 11.4143 1.83337 10.1431V8.80977Z" fill="#1C274C"/>
</svg>
