<svg width="20" height="20" viewBox="0 0 20 20" fill="none" xmlns="http://www.w3.org/2000/svg">
<path d="M15.2417 15.25C15.3977 15.0943 15.4854 14.8829 15.4854 14.6625C15.4854 14.442 15.3977 14.2307 15.2417 14.075L11.175 9.99998L15.25 5.92498C15.4061 5.76928 15.4938 5.55791 15.4938 5.33748C15.4938 5.11704 15.4061 4.90567 15.25 4.74998C14.925 4.42498 14.4 4.42498 14.075 4.74998L10 8.82498L5.92501 4.74998C5.60001 4.42498 5.07501 4.42498 4.75001 4.74998C4.42501 5.07498 4.42501 5.59998 4.75001 5.92498L8.82501 9.99998L4.75001 14.075C4.42501 14.4 4.42501 14.925 4.75001 15.25C5.07501 15.575 5.60001 15.575 5.92501 15.25L10 11.175L14.075 15.25C14.3917 15.5666 14.925 15.5666 15.2417 15.25Z" fill="white"/>
</svg>
