<svg width="16" height="17" viewBox="0 0 16 17" fill="none" xmlns="http://www.w3.org/2000/svg">
<path d="M13.3333 4.49999H10.6667V3.83333C10.6667 3.3029 10.456 2.79419 10.0809 2.41911C9.70581 2.04404 9.1971 1.83333 8.66667 1.83333H7.33333C6.8029 1.83333 6.29419 2.04404 5.91912 2.41911C5.54405 2.79419 5.33333 3.3029 5.33333 3.83333V4.49999H2.66667C2.48986 4.49999 2.32029 4.57023 2.19526 4.69526C2.07024 4.82028 2 4.98985 2 5.16666C2 5.34347 2.07024 5.51304 2.19526 5.63807C2.32029 5.76309 2.48986 5.83333 2.66667 5.83333H3.33333V13.1667C3.33333 13.6971 3.54405 14.2058 3.91912 14.5809C4.29419 14.9559 4.8029 15.1667 5.33333 15.1667H10.6667C11.1971 15.1667 11.7058 14.9559 12.0809 14.5809C12.456 14.2058 12.6667 13.6971 12.6667 13.1667V5.83333H13.3333C13.5101 5.83333 13.6797 5.76309 13.8047 5.63807C13.9298 5.51304 14 5.34347 14 5.16666C14 4.98985 13.9298 4.82028 13.8047 4.69526C13.6797 4.57023 13.5101 4.49999 13.3333 4.49999ZM6.66667 3.83333C6.66667 3.65652 6.7369 3.48695 6.86193 3.36192C6.98695 3.2369 7.15652 3.16666 7.33333 3.16666H8.66667C8.84348 3.16666 9.01305 3.2369 9.13807 3.36192C9.2631 3.48695 9.33333 3.65652 9.33333 3.83333V4.49999H6.66667V3.83333ZM11.3333 13.1667C11.3333 13.3435 11.2631 13.513 11.1381 13.6381C11.013 13.7631 10.8435 13.8333 10.6667 13.8333H5.33333C5.15652 13.8333 4.98695 13.7631 4.86193 13.6381C4.7369 13.513 4.66667 13.3435 4.66667 13.1667V5.83333H11.3333V13.1667Z" fill="#F76565"/>
</svg>
