<svg width="20" height="20" viewBox="0 0 20 20" fill="none" xmlns="http://www.w3.org/2000/svg">
<path d="M13.29 8.28936L10.51 11.0694C10.3436 11.0251 10.1723 11.0016 10 10.9994C9.4696 10.9994 8.96089 11.2101 8.58582 11.5851C8.21074 11.9602 8.00003 12.4689 8.00003 12.9994C8.00226 13.1716 8.02577 13.3429 8.07003 13.5094L7.29003 14.2894C7.1963 14.3823 7.12191 14.4929 7.07114 14.6148C7.02037 14.7366 6.99423 14.8673 6.99423 14.9994C6.99423 15.1314 7.02037 15.2621 7.07114 15.3839C7.12191 15.5058 7.1963 15.6164 7.29003 15.7094C7.38299 15.8031 7.49359 15.8775 7.61545 15.9283C7.73731 15.979 7.86802 16.0052 8.00003 16.0052C8.13204 16.0052 8.26275 15.979 8.38461 15.9283C8.50647 15.8775 8.61707 15.8031 8.71003 15.7094L9.49003 14.9294C9.6565 14.9736 9.8278 14.9971 10 14.9994C10.5305 14.9994 11.0392 14.7886 11.4142 14.4136C11.7893 14.0385 12 13.5298 12 12.9994C11.9978 12.8271 11.9743 12.6558 11.93 12.4894L14.71 9.70936C14.8983 9.52106 15.0041 9.26566 15.0041 8.99936C15.0041 8.73306 14.8983 8.47766 14.71 8.28936C14.5217 8.10106 14.2663 7.99527 14 7.99527C13.7337 7.99527 13.4783 8.10106 13.29 8.28936ZM10 1.99936C8.68681 1.99936 7.38645 2.25802 6.1732 2.76056C4.95994 3.26311 3.85755 3.99971 2.92896 4.92829C1.0536 6.80366 3.06482e-05 9.34719 3.06482e-05 11.9994C-0.00489394 13.9799 0.583753 15.9165 1.69003 17.5594C1.83855 17.7795 2.06844 17.9316 2.32911 17.9822C2.58979 18.0329 2.8599 17.9779 3.08003 17.8294C3.30016 17.6808 3.45227 17.451 3.50291 17.1903C3.55354 16.9296 3.49855 16.6595 3.35003 16.4394C2.54455 15.2349 2.08131 13.8343 2.00978 12.3871C1.93826 10.9399 2.26113 9.50041 2.94392 8.22239C3.62671 6.94437 4.64378 5.87579 5.88653 5.13075C7.12928 4.3857 8.55105 3.99217 10 3.99217C11.449 3.99217 12.8708 4.3857 14.1135 5.13075C15.3563 5.87579 16.3734 6.94437 17.0561 8.22239C17.7389 9.50041 18.0618 10.9399 17.9903 12.3871C17.9188 13.8343 17.4555 15.2349 16.65 16.4394C16.5763 16.5483 16.5248 16.6707 16.4985 16.7996C16.4722 16.9285 16.4716 17.0613 16.4966 17.1904C16.5217 17.3195 16.572 17.4424 16.6447 17.552C16.7173 17.6617 16.8109 17.7559 16.92 17.8294C17.0856 17.9406 17.2806 17.9998 17.48 17.9994C17.6438 17.9996 17.8052 17.9596 17.9499 17.8829C18.0946 17.8062 18.2183 17.6951 18.31 17.5594C19.4163 15.9165 20.005 13.9799 20 11.9994C20 9.34719 18.9465 6.80366 17.0711 4.92829C15.1957 3.05293 12.6522 1.99936 10 1.99936Z" fill="white" fill-opacity="0.8"/>
</svg>
