<svg width="20" height="21" viewBox="0 0 20 21" fill="none" xmlns="http://www.w3.org/2000/svg">
<path d="M8.33337 7.47647H16.6667" stroke="white" stroke-width="1.5" stroke-linecap="round"/>
<path d="M3.33337 14.1432H11.6667" stroke="white" stroke-width="1.5" stroke-linecap="round"/>
<path d="M3.33337 7.47647C3.33337 8.85718 4.45266 9.97647 5.83337 9.97647C7.21409 9.97647 8.33337 8.85718 8.33337 7.47647C8.33337 6.09576 7.21409 4.97647 5.83337 4.97647C4.45266 4.97647 3.33337 6.09576 3.33337 7.47647Z" stroke="white" stroke-width="1.5" stroke-linecap="round"/>
<path d="M11.6666 14.1432C11.6666 15.5239 12.7859 16.6432 14.1666 16.6432C15.5473 16.6432 16.6666 15.5239 16.6666 14.1432C16.6666 12.7624 15.5473 11.6432 14.1666 11.6432C12.7859 11.6432 11.6666 12.7624 11.6666 14.1432Z" stroke="white" stroke-width="1.5" stroke-linecap="round"/>
</svg>
