<svg width="16" height="17" viewBox="0 0 16 17" fill="none" xmlns="http://www.w3.org/2000/svg">
<path d="M6.47333 4.97333L7.33333 4.10667V11.8333C7.33333 12.0101 7.40357 12.1797 7.5286 12.3047C7.65362 12.4298 7.82319 12.5 8 12.5C8.17681 12.5 8.34638 12.4298 8.4714 12.3047C8.59643 12.1797 8.66667 12.0101 8.66667 11.8333V4.10667L9.52667 4.97333C9.58864 5.03582 9.66238 5.08542 9.74362 5.11926C9.82486 5.15311 9.91199 5.17053 10 5.17053C10.088 5.17053 10.1751 5.15311 10.2564 5.11926C10.3376 5.08542 10.4114 5.03582 10.4733 4.97333C10.5358 4.91136 10.5854 4.83762 10.6193 4.75638C10.6531 4.67515 10.6705 4.58801 10.6705 4.5C10.6705 4.41199 10.6531 4.32486 10.6193 4.24362C10.5854 4.16238 10.5358 4.08864 10.4733 4.02667L8.47333 2.02667C8.41136 1.96418 8.33762 1.91458 8.25638 1.88074C8.17515 1.84689 8.08801 1.82947 8 1.82947C7.91199 1.82947 7.82486 1.84689 7.74362 1.88074C7.66238 1.91458 7.58864 1.96418 7.52667 2.02667L5.52667 4.02667C5.40113 4.1522 5.33061 4.32247 5.33061 4.5C5.33061 4.67753 5.40113 4.8478 5.52667 4.97333C5.6522 5.09887 5.82247 5.16939 6 5.16939C6.17753 5.16939 6.3478 5.09887 6.47333 4.97333ZM12 6.5H10.6667C10.4899 6.5 10.3203 6.57024 10.1953 6.69526C10.0702 6.82029 10 6.98986 10 7.16667C10 7.34348 10.0702 7.51305 10.1953 7.63807C10.3203 7.7631 10.4899 7.83333 10.6667 7.83333H12C12.1768 7.83333 12.3464 7.90357 12.4714 8.0286C12.5964 8.15362 12.6667 8.32319 12.6667 8.5V13.1667C12.6667 13.3435 12.5964 13.513 12.4714 13.6381C12.3464 13.7631 12.1768 13.8333 12 13.8333H4C3.82319 13.8333 3.65362 13.7631 3.5286 13.6381C3.40357 13.513 3.33333 13.3435 3.33333 13.1667V8.5C3.33333 8.32319 3.40357 8.15362 3.5286 8.0286C3.65362 7.90357 3.82319 7.83333 4 7.83333H5.33333C5.51014 7.83333 5.67971 7.7631 5.80474 7.63807C5.92976 7.51305 6 7.34348 6 7.16667C6 6.98986 5.92976 6.82029 5.80474 6.69526C5.67971 6.57024 5.51014 6.5 5.33333 6.5H4C3.46957 6.5 2.96086 6.71071 2.58579 7.08579C2.21071 7.46086 2 7.96957 2 8.5V13.1667C2 13.6971 2.21071 14.2058 2.58579 14.5809C2.96086 14.956 3.46957 15.1667 4 15.1667H12C12.5304 15.1667 13.0391 14.956 13.4142 14.5809C13.7893 14.2058 14 13.6971 14 13.1667V8.5C14 7.96957 13.7893 7.46086 13.4142 7.08579C13.0391 6.71071 12.5304 6.5 12 6.5Z" fill="#EB5757"/>
</svg>
