<svg width="20" height="20" viewBox="0 0 20 20" fill="none" xmlns="http://www.w3.org/2000/svg">
<path d="M18 6.94C17.9896 6.84813 17.9695 6.75763 17.94 6.67V6.58C17.8919 6.47718 17.8278 6.38267 17.75 6.3L11.75 0.3C11.6673 0.222216 11.5728 0.158081 11.47 0.11H11.37C11.2728 0.058003 11.1683 0.020922 11.06 0H5C4.20435 0 3.44129 0.316071 2.87868 0.87868C2.31607 1.44129 2 2.20435 2 3V17C2 17.7956 2.31607 18.5587 2.87868 19.1213C3.44129 19.6839 4.20435 20 5 20H15C15.7956 20 16.5587 19.6839 17.1213 19.1213C17.6839 18.5587 18 17.7956 18 17V7C18 7 18 7 18 6.94ZM12 3.41L14.59 6H13C12.7348 6 12.4804 5.89464 12.2929 5.70711C12.1054 5.51957 12 5.26522 12 5V3.41ZM16 17C16 17.2652 15.8946 17.5196 15.7071 17.7071C15.5196 17.8946 15.2652 18 15 18H5C4.73478 18 4.48043 17.8946 4.29289 17.7071C4.10536 17.5196 4 17.2652 4 17V3C4 2.73478 4.10536 2.48043 4.29289 2.29289C4.48043 2.10536 4.73478 2 5 2H10V5C10 5.79565 10.3161 6.55871 10.8787 7.12132C11.4413 7.68393 12.2044 8 13 8H16V17ZM10 9.34C9.38003 9.00235 8.65873 8.90072 7.96961 9.05394C7.28048 9.20717 6.6702 9.60486 6.25172 10.1734C5.83324 10.7419 5.6349 11.4429 5.69342 12.1464C5.75194 12.8499 6.06334 13.5084 6.57 14L9.29 16.72C9.38296 16.8137 9.49356 16.8881 9.61542 16.9389C9.73728 16.9897 9.86799 17.0158 10 17.0158C10.132 17.0158 10.2627 16.9897 10.3846 16.9389C10.5064 16.8881 10.617 16.8137 10.71 16.72L13.43 14C13.9367 13.5084 14.2481 12.8499 14.3066 12.1464C14.3651 11.4429 14.1668 10.7419 13.7483 10.1734C13.3298 9.60486 12.7195 9.20717 12.0304 9.05394C11.3413 8.90072 10.62 9.00235 10 9.34ZM12 11.27C12.1722 11.4425 12.2689 11.6763 12.2689 11.92C12.2689 12.1637 12.1722 12.3975 12 12.57L10 14.57L8 12.57C7.8278 12.3975 7.73108 12.1637 7.73108 11.92C7.73108 11.6763 7.8278 11.4425 8 11.27C8.17249 11.0978 8.40626 11.0011 8.65 11.0011C8.89373 11.0011 9.12751 11.0978 9.3 11.27C9.39296 11.3637 9.50356 11.4381 9.62542 11.4889C9.74728 11.5397 9.87799 11.5658 10.01 11.5658C10.142 11.5658 10.2727 11.5397 10.3946 11.4889C10.5164 11.4381 10.627 11.3637 10.72 11.27C10.8916 11.1038 11.1211 11.0109 11.36 11.0109C11.5989 11.0109 11.8284 11.1038 12 11.27Z" fill="white" fill-opacity="0.8"/>
</svg>
