<svg width="20" height="20" viewBox="0 0 20 20" fill="none" xmlns="http://www.w3.org/2000/svg">
<path d="M12 11C12 10.7348 11.8946 10.4804 11.7071 10.2929C11.5196 10.1054 11.2652 10 11 10H6C5.73478 10 5.48043 10.1054 5.29289 10.2929C5.10536 10.4804 5 10.7348 5 11C5 11.2652 5.10536 11.5196 5.29289 11.7071C5.48043 11.8946 5.73478 12 6 12H11C11.2652 12 11.5196 11.8946 11.7071 11.7071C11.8946 11.5196 12 11.2652 12 11ZM9 18H4C3.73478 18 3.48043 17.8946 3.29289 17.7071C3.10536 17.5196 3 17.2652 3 17V3C3 2.73478 3.10536 2.48043 3.29289 2.29289C3.48043 2.10536 3.73478 2 4 2H9V5C9 5.79565 9.31607 6.55871 9.87868 7.12132C10.4413 7.68393 11.2044 8 12 8H15V9C15 9.26522 15.1054 9.51957 15.2929 9.70711C15.4804 9.89464 15.7348 10 16 10C16.2652 10 16.5196 9.89464 16.7071 9.70711C16.8946 9.51957 17 9.26522 17 9V7C17 7 17 7 17 6.94C16.9907 6.84796 16.9705 6.75734 16.94 6.67V6.58C16.8945 6.47572 16.8301 6.38078 16.75 6.3L10.75 0.3C10.6673 0.222216 10.5728 0.158081 10.47 0.11H10.38C10.2817 0.0525033 10.1729 0.0151131 10.06 0H4C3.20435 0 2.44129 0.316071 1.87868 0.87868C1.31607 1.44129 1 2.20435 1 3V17C1 17.7956 1.31607 18.5587 1.87868 19.1213C2.44129 19.6839 3.20435 20 4 20H9C9.26522 20 9.51957 19.8946 9.70711 19.7071C9.89464 19.5196 10 19.2652 10 19C10 18.7348 9.89464 18.4804 9.70711 18.2929C9.51957 18.1054 9.26522 18 9 18ZM11 3.41L13.59 6H12C11.7348 6 11.4804 5.89464 11.2929 5.70711C11.1054 5.51957 11 5.26522 11 5V3.41ZM18 12C17.8065 12.0013 17.6176 12.0586 17.4561 12.1651C17.2945 12.2716 17.1674 12.4227 17.09 12.6C16.4606 12.2142 15.7382 12.0068 15 12C14.3526 11.9991 13.7146 12.1553 13.1408 12.4553C12.5671 12.7553 12.0747 13.1901 11.706 13.7223C11.3374 14.2546 11.1034 14.8683 11.0243 15.5109C10.9451 16.1535 11.0231 16.8057 11.2516 17.4115C11.4801 18.0173 11.8522 18.5586 12.3359 18.9889C12.8197 19.4192 13.4007 19.7256 14.029 19.8818C14.6574 20.038 15.3142 20.0394 15.9432 19.8858C16.5721 19.7322 17.1544 19.4282 17.64 19C17.8402 18.825 17.9627 18.5775 17.9806 18.3122C17.9984 18.0468 17.91 17.7852 17.735 17.585C17.56 17.3848 17.3125 17.2623 17.0472 17.2444C16.7818 17.2266 16.5202 17.315 16.32 17.49C15.9569 17.8152 15.4874 17.9965 15 18C14.6962 17.9951 14.3975 17.921 14.1266 17.7835C13.8557 17.6459 13.6197 17.4484 13.4365 17.2059C13.2533 16.9635 13.1278 16.6825 13.0694 16.3843C13.0111 16.0861 13.0215 15.7785 13.0998 15.4849C13.178 15.1913 13.3222 14.9194 13.5213 14.6899C13.7204 14.4603 13.9691 14.2792 14.2487 14.1601C14.5283 14.0411 14.8313 13.9873 15.1347 14.0029C15.4382 14.0185 15.7341 14.103 16 14.25H15.78C15.5148 14.25 15.2604 14.3554 15.0729 14.5429C14.8854 14.7304 14.78 14.9848 14.78 15.25C14.78 15.5152 14.8854 15.7696 15.0729 15.9571C15.2604 16.1446 15.5148 16.25 15.78 16.25H18C18.2652 16.25 18.5196 16.1446 18.7071 15.9571C18.8946 15.7696 19 15.5152 19 15.25V13C19 12.7348 18.8946 12.4804 18.7071 12.2929C18.5196 12.1054 18.2652 12 18 12ZM6 8H7C7.26522 8 7.51957 7.89464 7.70711 7.70711C7.89464 7.51957 8 7.26522 8 7C8 6.73478 7.89464 6.48043 7.70711 6.29289C7.51957 6.10536 7.26522 6 7 6H6C5.73478 6 5.48043 6.10536 5.29289 6.29289C5.10536 6.48043 5 6.73478 5 7C5 7.26522 5.10536 7.51957 5.29289 7.70711C5.48043 7.89464 5.73478 8 6 8ZM6 14C5.73478 14 5.48043 14.1054 5.29289 14.2929C5.10536 14.4804 5 14.7348 5 15C5 15.2652 5.10536 15.5196 5.29289 15.7071C5.48043 15.8946 5.73478 16 6 16H8C8.26522 16 8.51957 15.8946 8.70711 15.7071C8.89464 15.5196 9 15.2652 9 15C9 14.7348 8.89464 14.4804 8.70711 14.2929C8.51957 14.1054 8.26522 14 8 14H6Z" fill="white" fill-opacity="0.8"/>
</svg>
