<svg width="24" height="25" viewBox="0 0 24 25" fill="none" xmlns="http://www.w3.org/2000/svg">
<path d="M11.5231 4C8.42821 4 5.91301 6.55127 5.91301 9.69057V12.4315C5.91301 13.0101 5.66991 13.8921 5.38005 14.3853L4.30478 16.1968C3.64092 17.3159 4.09908 18.5584 5.3146 18.9757C9.34453 20.3414 13.6924 20.3414 17.7223 18.9757C18.8537 18.5963 19.3492 17.2401 18.7321 16.1968L17.6568 14.3853C17.3763 13.8921 17.1332 13.0101 17.1332 12.4315V9.69057C17.1332 6.56076 14.6087 4 11.5231 4Z" stroke="#1E3A8A" stroke-width="2" stroke-miterlimit="10" stroke-linecap="round"/>
<path d="M12 4C11.9162 3.92857 11.8297 3.87302 11.7405 3.84127C11.4811 3.74603 11.2324 3.80159 11 4C11.0784 3.4127 11.273 3 11.5 3C11.727 3 11.9216 3.4127 12 4Z" stroke="#1E3A8A" stroke-width="2" stroke-miterlimit="10" stroke-linecap="round" stroke-linejoin="round"/>
<path d="M14 19C14 20.65 12.875 22 11.5 22C10.8167 22 10.1833 21.66 9.73333 21.12C9.28333 20.58 9 19.82 9 19" stroke="#1E3A8A" stroke-width="2" stroke-miterlimit="10"/>
<circle cx="19" cy="6" r="4.5" fill="#F66565" stroke="white"/>
</svg>
