<svg width="41" height="37" viewBox="0 0 41 37" fill="none" xmlns="http://www.w3.org/2000/svg">
<path d="M40.5386 31.5981C41.8524 33.8755 40.2032 36.7222 37.5791 36.7222H3.42053C0.791335 36.7222 -0.850231 33.8711 0.461057 31.5981L17.5405 1.98504C18.855 -0.293381 22.1474 -0.289253 23.4595 1.98504L40.5386 31.5981ZM20.5 25.4757C18.6917 25.4757 17.2257 26.9417 17.2257 28.75C17.2257 30.5583 18.6917 32.0243 20.5 32.0243C22.3084 32.0243 23.7743 30.5583 23.7743 28.75C23.7743 26.9417 22.3084 25.4757 20.5 25.4757ZM17.3914 13.7063L17.9194 23.3868C17.9441 23.8398 18.3186 24.1944 18.7723 24.1944H22.2278C22.6814 24.1944 23.056 23.8398 23.0807 23.3868L23.6087 13.7063C23.6354 13.217 23.2458 12.8055 22.7558 12.8055H18.2442C17.7542 12.8055 17.3647 13.217 17.3914 13.7063Z" fill="#F76565"/>
</svg>
