<svg width="current" height="current" viewBox="0 0 20 21" fill="none" xmlns="http://www.w3.org/2000/svg">
<path d="M2.5 5.73824H4.16667M4.16667 5.73824H17.5M4.16667 5.73824V17.4049C4.16667 17.8469 4.34226 18.2709 4.65482 18.5834C4.96738 18.896 5.39131 19.0716 5.83333 19.0716H14.1667C14.6087 19.0716 15.0326 18.896 15.3452 18.5834C15.6577 18.2709 15.8333 17.8469 15.8333 17.4049V5.73824H4.16667ZM6.66667 5.73824V4.07157C6.66667 3.62955 6.84226 3.20562 7.15482 2.89306C7.46738 2.5805 7.89131 2.40491 8.33333 2.40491H11.6667C12.1087 2.40491 12.5326 2.5805 12.8452 2.89306C13.1577 3.20562 13.3333 3.62955 13.3333 4.07157V5.73824M8.33333 9.90491V14.9049M11.6667 9.90491V14.9049" stroke="current" stroke-width="1.66667" stroke-linecap="round" stroke-linejoin="round"/>
</svg>
