<svg width="25" height="24" viewBox="0 0 25 24" fill="none" xmlns="http://www.w3.org/2000/svg">
<path fill-rule="evenodd" clip-rule="evenodd" d="M7.35929 1.24999C7.38904 1.25 7.41919 1.25 7.44976 1.25L7.48675 1.25C7.83818 1.24998 8.06433 1.24996 8.28542 1.27063C9.18728 1.35497 10.0452 1.69529 10.7586 2.25H17C17.0196 2.25 17.0389 2.25 17.0579 2.24999C17.4666 2.24993 17.7449 2.24988 17.9895 2.28208C19.6722 2.50362 20.9964 3.82778 21.2179 5.51053C21.2263 5.57395 21.2325 5.63965 21.237 5.70929C21.5145 5.83577 21.7715 5.99933 22.0077 6.21183C22.1061 6.3003 22.1997 6.39392 22.2882 6.49229C22.8165 7.07964 23.0422 7.79457 23.148 8.63599C23.25 9.44788 23.25 10.4741 23.25 11.747V14.0564C23.25 15.8942 23.25 17.3498 23.0969 18.489C22.9393 19.6614 22.6071 20.6104 21.8588 21.3588C21.1104 22.1071 20.1615 22.4392 18.989 22.5969C17.8498 22.75 16.3942 22.75 14.5564 22.75H10.4436C8.60584 22.75 7.15021 22.75 6.01099 22.5969C4.83857 22.4392 3.88962 22.1071 3.14126 21.3588C2.3929 20.6104 2.06078 19.6614 1.90315 18.489C1.74999 17.3498 1.75 15.8942 1.75002 14.0564L1.75002 6.94975C1.75002 6.91918 1.75001 6.88902 1.75001 6.85927C1.7499 6.06336 1.74982 5.55684 1.83237 5.11933C2.1949 3.19787 3.69788 1.69489 5.61935 1.33235C6.05685 1.24981 6.56338 1.24988 7.35929 1.24999ZM19.6474 5.32767C19.3895 4.50289 18.6732 3.88504 17.7937 3.76925C17.6598 3.75162 17.4883 3.75 17 3.75H12.3113C12.9542 4.38907 13.2459 4.65597 13.5768 4.84003C13.7948 4.96133 14.026 5.05712 14.266 5.12551C14.6793 5.24332 15.1324 5.25 16.3284 5.25L16.753 5.25C17.9153 5.24998 18.8718 5.24997 19.6474 5.32767ZM7.44976 2.75C6.53312 2.75 6.17873 2.75328 5.89746 2.80635C4.58277 3.0544 3.55441 4.08275 3.30636 5.39744C3.25329 5.67871 3.25002 6.03311 3.25002 6.94975V14C3.25002 15.9068 3.25161 17.2615 3.38978 18.2892C3.52504 19.2952 3.77871 19.8749 4.20192 20.2981C4.62513 20.7213 5.20478 20.975 6.21087 21.1102C7.23853 21.2484 8.5932 21.25 10.5 21.25H14.5C16.4068 21.25 17.7615 21.2484 18.7892 21.1102C19.7953 20.975 20.3749 20.7213 20.7981 20.2981C21.2213 19.8749 21.475 19.2952 21.6103 18.2892C21.7484 17.2615 21.75 15.9068 21.75 14V11.7979C21.75 10.4621 21.7486 9.53049 21.6597 8.82311C21.5731 8.13446 21.4141 7.76355 21.1729 7.49537C21.1198 7.43636 21.0637 7.38019 21.0046 7.3271C20.7365 7.0859 20.3656 6.92691 19.6769 6.84033C18.9695 6.75139 18.038 6.75 16.7021 6.75H16.3284C16.2912 6.75 16.2545 6.75001 16.2182 6.75002C15.1702 6.75023 14.4944 6.75037 13.8548 6.56805C13.5041 6.46809 13.1661 6.3281 12.8475 6.15082C12.2663 5.82746 11.7885 5.34948 11.0476 4.60831C11.022 4.58264 10.996 4.55664 10.9697 4.53033L10.4194 3.98008C10.1362 3.6968 10.0278 3.58949 9.91731 3.49792C9.41403 3.08072 8.79664 2.82498 8.14576 2.76412C8.00289 2.75076 7.85038 2.75 7.44976 2.75ZM12.75 10C12.75 9.58579 13.0858 9.25 13.5 9.25H18.5C18.9142 9.25 19.25 9.58579 19.25 10C19.25 10.4142 18.9142 10.75 18.5 10.75H13.5C13.0858 10.75 12.75 10.4142 12.75 10Z" fill="white"/>
</svg>
