<svg width="25" height="24" viewBox="0 0 25 24" fill="none" xmlns="http://www.w3.org/2000/svg">
<path fill-rule="evenodd" clip-rule="evenodd" d="M7.76279 3.25871C7.88317 2.12953 8.83887 1.25 10 1.25H15C16.1611 1.25 17.1168 2.12953 17.2372 3.25871C18.0004 3.27425 18.6602 3.31372 19.2236 3.41721C19.9816 3.55644 20.6267 3.82168 21.1517 4.34661C21.7536 4.94853 22.0125 5.7064 22.1335 6.60651C22.25 7.47348 22.25 8.5758 22.25 9.94339V16.0531C22.25 17.4207 22.25 18.523 22.1335 19.39C22.0125 20.2901 21.7536 21.048 21.1517 21.6499C20.5497 22.2518 19.7919 22.5107 18.8918 22.6317C18.0248 22.7483 16.9225 22.7483 15.5549 22.7483H9.44513C8.07754 22.7483 6.97522 22.7483 6.10825 22.6317C5.20814 22.5107 4.45027 22.2518 3.84835 21.6499C3.24643 21.048 2.98754 20.2901 2.86652 19.39C2.74996 18.523 2.74998 17.4207 2.75 16.0531V9.94339C2.74998 8.5758 2.74996 7.47348 2.86652 6.60651C2.98754 5.7064 3.24643 4.94853 3.84835 4.34661C4.37328 3.82168 5.01835 3.55644 5.77635 3.41721C6.33977 3.31372 6.99963 3.27425 7.76279 3.25871ZM7.76476 4.75913C7.04668 4.77447 6.49332 4.81061 6.04735 4.89253C5.48054 4.99664 5.15246 5.16382 4.90901 5.40727C4.63225 5.68403 4.4518 6.07261 4.35315 6.80638C4.25159 7.56173 4.25 8.56285 4.25 9.99826V15.9983C4.25 17.4337 4.25159 18.4348 4.35315 19.1901C4.4518 19.9239 4.63225 20.3125 4.90901 20.5893C5.18577 20.866 5.57435 21.0465 6.30812 21.1451C7.06347 21.2467 8.06458 21.2483 9.5 21.2483H15.5C16.9354 21.2483 17.9365 21.2467 18.6919 21.1451C19.4257 21.0465 19.8142 20.866 20.091 20.5893C20.3678 20.3125 20.5482 19.9239 20.6469 19.1901C20.7484 18.4348 20.75 17.4337 20.75 15.9983V9.99826C20.75 8.56285 20.7484 7.56173 20.6469 6.80638C20.5482 6.07261 20.3678 5.68403 20.091 5.40727C19.8475 5.16382 19.5195 4.99664 18.9527 4.89253C18.5067 4.81061 17.9533 4.77447 17.2352 4.75913C17.1067 5.87972 16.155 6.75 15 6.75H10C8.845 6.75 7.89326 5.87972 7.76476 4.75913ZM10 2.75C9.58579 2.75 9.25 3.08579 9.25 3.5V4.5C9.25 4.91421 9.58579 5.25 10 5.25H15C15.4142 5.25 15.75 4.91421 15.75 4.5V3.5C15.75 3.08579 15.4142 2.75 15 2.75H10ZM10.7419 11.7896C10.5126 11.87 10.25 12.1207 10.25 12.6967C10.25 12.9113 10.3912 13.2423 10.7595 13.6681C11.1081 14.0712 11.5686 14.4542 11.9865 14.7609C12.2128 14.9269 12.3202 15.0034 12.4061 15.0488C12.4605 15.0775 12.4756 15.0776 12.5 15.0776C12.5244 15.0776 12.5395 15.0775 12.5939 15.0488C12.6798 15.0034 12.7872 14.9269 13.0135 14.7609C13.4314 14.4542 13.8919 14.0713 14.2405 13.6681C14.6088 13.2423 14.75 12.9113 14.75 12.6967C14.75 12.1207 14.4874 11.87 14.2581 11.7896C14.0078 11.7019 13.5442 11.7299 13.0187 12.2331C12.7287 12.5108 12.2713 12.5108 11.9813 12.2331C11.4558 11.7299 10.9922 11.7019 10.7419 11.7896ZM12.5 10.7343C11.7837 10.2628 10.975 10.1184 10.2457 10.3741C9.31245 10.7012 8.75 11.5995 8.75 12.6967C8.75 13.4666 9.1912 14.1479 9.6249 14.6493C10.0782 15.1735 10.6391 15.6327 11.0992 15.9703C11.1225 15.9874 11.146 16.0047 11.1697 16.0223C11.5209 16.282 11.9207 16.5775 12.5 16.5776C13.0793 16.5776 13.4791 16.282 13.8303 16.0223C13.854 16.0047 13.8775 15.9874 13.9008 15.9703C14.3609 15.6327 14.9218 15.1735 15.3751 14.6493C15.8088 14.1479 16.25 13.4666 16.25 12.6967C16.25 11.5995 15.6875 10.7012 14.7543 10.3741C14.025 10.1184 13.2163 10.2628 12.5 10.7343Z" fill="white"/>
</svg>
