<svg width="16" height="16" viewBox="0 0 16 16" fill="none" xmlns="http://www.w3.org/2000/svg">
<g clip-path="url(#clip0_104_4572)">
<path d="M10.3866 8C10.3866 9.32 9.31995 10.3867 7.99995 10.3867C6.67995 10.3867 5.61328 9.32 5.61328 8C5.61328 6.68 6.67995 5.61333 7.99995 5.61333C9.31995 5.61333 10.3866 6.68 10.3866 8Z" stroke="#BFBFBF" stroke-linecap="round" stroke-linejoin="round"/>
<path d="M8.00002 13.5133C10.3534 13.5133 12.5467 12.1267 14.0734 9.72667C14.6734 8.78667 14.6734 7.20667 14.0734 6.26667C12.5467 3.86667 10.3534 2.48 8.00002 2.48C5.64668 2.48 3.45335 3.86667 1.92668 6.26667C1.32668 7.20667 1.32668 8.78667 1.92668 9.72667C3.45335 12.1267 5.64668 13.5133 8.00002 13.5133Z" stroke="#BFBFBF" stroke-linecap="round" stroke-linejoin="round"/>
</g>
<defs>
<clipPath id="clip0_104_4572">
<rect width="16" height="16" fill="white"/>
</clipPath>
</defs>
</svg>
